<svg width="505" height="409" viewBox="0 0 505 409" fill="none" xmlns="http://www.w3.org/2000/svg">
<path d="M267.202 377.893L461.877 267.828C463.28 267.067 464.461 265.926 465.297 264.525C466.133 263.124 466.593 261.515 466.629 259.865C466.665 258.215 466.276 256.585 465.501 255.146C464.727 253.707 463.597 252.511 462.228 251.684L273.507 133.954C272.063 133.06 270.419 132.576 268.74 132.553C267.061 132.529 265.406 132.965 263.939 133.819L58.006 254.167C56.6048 254.956 55.4344 256.126 54.6186 257.553C53.8028 258.981 53.3721 260.611 53.3721 262.273C53.3721 263.935 53.8028 265.565 54.6186 266.992C55.4344 268.419 56.6048 269.59 58.006 270.379L241.631 377.704C245.535 379.975 249.924 381.183 254.393 381.216C258.862 381.249 263.268 380.106 267.202 377.893Z" fill="#00275E"/>
<path d="M234.247 214.417C234.247 214.417 194.87 236.354 185.549 288.694C185.549 288.694 223.899 297.173 275.249 252.851" fill="#EB773A"/>
<path d="M233.753 221.092C233.753 221.092 216.957 236.815 212.225 247.913C207.493 259.01 201.318 275.249 201.318 275.249C201.318 275.249 230.893 277.881 258.7 260.123C286.507 242.364 260 209.153 233.753 221.092Z" fill="#FFAE46"/>
<path d="M250.445 215.57C249.431 217.347 232.128 227.522 228.891 242.201L234.533 237.738C234.533 237.738 224.939 251.766 220.87 259.838C220.87 259.838 244.27 250.111 243.542 250.694L236.925 255.931C236.925 255.931 254.722 255.537 266.825 244.25C278.928 232.963 262.288 213.278 262.288 213.278L250.445 215.57Z" fill="#FAD374"/>
<path d="M302.666 215.435C302.666 215.435 299.611 236.124 293.072 241.211C286.533 246.298 265.304 263.162 265.304 263.162L261.781 258.305C261.781 258.305 276.419 231.077 279.006 219.057C281.593 207.037 302.666 215.435 302.666 215.435Z" fill="#68E1FD"/>
<path opacity="0.61" d="M302.666 215.435C302.666 215.435 299.611 236.124 293.072 241.211C286.533 246.298 265.304 263.162 265.304 263.162L261.781 258.305C261.781 258.305 276.419 231.077 279.006 219.057C281.593 207.037 302.666 215.435 302.666 215.435Z" fill="#363636"/>
<path d="M281.528 186.321C281.528 186.321 261.612 183.798 255.086 189.034C248.56 194.271 227.318 210.985 227.318 210.985L230.841 215.842C230.841 215.842 259.922 208.502 271.713 209.167C283.504 209.832 281.528 186.321 281.528 186.321Z" fill="#68E1FD"/>
<path opacity="0.61" d="M281.528 186.321C281.528 186.321 261.612 183.798 255.086 189.034C248.56 194.271 227.318 210.985 227.318 210.985L230.841 215.842C230.841 215.842 259.922 208.502 271.713 209.167C283.504 209.832 281.528 186.321 281.528 186.321Z" fill="#363636"/>
<path d="M377.143 151.591C382.408 143.008 386.659 133.793 389.805 124.146C389.805 124.146 378.235 124.281 360.945 129.654C362.323 138.838 369.356 146.164 377.143 151.591Z" fill="#68E1FD"/>
<path d="M330.761 188.877C336.255 184.534 336.874 175.73 332.144 169.215C327.413 162.699 319.125 160.939 313.631 165.283C308.137 169.627 307.519 178.43 312.249 184.945C316.979 191.461 325.268 193.221 330.761 188.877Z" fill="#68E1FD"/>
<path d="M430.209 91.6674C430.209 91.6674 321.269 119.94 265.915 203.645C265.915 203.645 252.915 218.121 259.194 226.166C265.473 234.211 286.403 227.807 286.403 227.807C286.403 227.807 355.186 207.43 430.209 91.6674Z" fill="#68E1FD"/>
<path d="M265.915 203.645C265.915 203.645 252.187 201.909 247.715 205.477C243.243 209.045 228.579 220.603 228.579 220.603L231.01 223.954C231.01 223.954 251.056 218.894 259.168 219.355C267.28 219.817 265.915 203.645 265.915 203.645Z" fill="#68E1FD"/>
<path d="M282.451 226.423C282.451 226.423 280.345 240.682 275.834 244.236C271.323 247.791 256.698 259.363 256.698 259.363L254.28 256.053C254.28 256.053 264.368 237.29 266.149 229.001C267.93 220.712 282.451 226.423 282.451 226.423Z" fill="#68E1FD"/>
<path opacity="0.29" d="M265.915 203.645C265.915 203.645 252.187 201.909 247.715 205.477C243.243 209.045 228.579 220.603 228.579 220.603L231.01 223.954C231.01 223.954 251.056 218.894 259.168 219.355C267.28 219.817 265.915 203.645 265.915 203.645Z" fill="#363636"/>
<path opacity="0.29" d="M282.451 226.423C282.451 226.423 280.345 240.682 275.834 244.236C271.323 247.791 256.698 259.363 256.698 259.363L254.28 256.053C254.28 256.053 264.368 237.29 266.149 229.001C267.93 220.712 282.451 226.423 282.451 226.423Z" fill="#363636"/>
<path d="M377.286 112.058C377.286 112.058 376.909 131.282 396.409 138.404L385.099 151.808C385.099 151.808 360.607 137.441 364.403 118.57L377.286 112.058Z" fill="#68E1FD"/>
<path d="M307.333 156.624C307.333 156.624 307.554 189.183 336.648 198.449L315.042 213.861C315.042 213.861 283.842 202.56 289.627 173.596L307.333 156.624Z" fill="#68E1FD"/>
<path d="M359.921 151.93C361.855 150.4 362.235 147.524 360.77 145.505C359.304 143.487 356.548 143.09 354.614 144.62C352.68 146.149 352.3 149.025 353.765 151.044C355.231 153.062 357.987 153.459 359.921 151.93Z" fill="#68E1FD"/>
<path d="M343.964 175.948C349.03 171.983 350.057 164.483 346.258 159.196C342.458 153.909 335.271 152.838 330.205 156.803C325.139 160.768 324.113 168.268 327.912 173.555C331.712 178.842 338.898 179.913 343.964 175.948Z" fill="#68E1FD"/>
<path opacity="0.61" d="M377.286 112.058C377.286 112.058 376.909 131.282 396.409 138.404L385.099 151.808C385.099 151.808 360.607 137.441 364.403 118.57L377.286 112.058Z" fill="#606060"/>
<path opacity="0.61" d="M307.333 156.624C307.333 156.624 307.554 189.183 336.648 198.449L315.042 213.861C315.042 213.861 283.842 202.56 289.627 173.596L307.333 156.624Z" fill="#606060"/>
<path opacity="0.61" d="M359.921 151.93C361.855 150.4 362.235 147.524 360.77 145.505C359.304 143.487 356.548 143.09 354.614 144.62C352.68 146.149 352.3 149.025 353.765 151.044C355.231 153.062 357.987 153.459 359.921 151.93Z" fill="#606060"/>
<path opacity="0.61" d="M343.964 175.948C349.03 171.983 350.057 164.483 346.258 159.196C342.458 153.909 335.271 152.838 330.205 156.803C325.139 160.768 324.113 168.268 327.912 173.555C331.712 178.842 338.898 179.913 343.964 175.948Z" fill="#606060"/>
<path d="M398.19 235.608C397.845 235.608 397.515 235.751 397.271 236.005C397.027 236.26 396.89 236.605 396.89 236.965C396.89 237.324 397.027 237.67 397.271 237.924C397.515 238.178 397.845 238.321 398.19 238.321C398.535 238.321 398.865 238.178 399.109 237.924C399.353 237.67 399.49 237.324 399.49 236.965C399.49 236.605 399.353 236.26 399.109 236.005C398.865 235.751 398.535 235.608 398.19 235.608Z" fill="white"/>
<path d="M332.332 289.643V290.512C332.332 290.871 332.469 291.216 332.713 291.471C332.957 291.725 333.287 291.868 333.632 291.868C333.977 291.868 334.307 291.725 334.551 291.471C334.795 291.216 334.932 290.871 334.932 290.512V289.643C334.932 289.284 334.795 288.938 334.551 288.684C334.307 288.43 333.977 288.287 333.632 288.287C333.287 288.287 332.957 288.43 332.713 288.684C332.469 288.938 332.332 289.284 332.332 289.643Z" fill="white"/>
<path d="M241.28 311.241V312.109C241.28 312.469 241.417 312.814 241.661 313.069C241.905 313.323 242.235 313.466 242.58 313.466C242.925 313.466 243.255 313.323 243.499 313.069C243.743 312.814 243.88 312.469 243.88 312.109V311.241C243.88 310.881 243.743 310.536 243.499 310.282C243.255 310.028 242.925 309.885 242.58 309.885C242.235 309.885 241.905 310.028 241.661 310.282C241.417 310.536 241.28 310.881 241.28 311.241Z" fill="white"/>
<path d="M326.183 245.105C325.838 245.105 325.508 245.247 325.264 245.502C325.02 245.756 324.883 246.101 324.883 246.461C324.883 246.821 325.02 247.166 325.264 247.42C325.508 247.675 325.838 247.818 326.183 247.818C326.528 247.818 326.858 247.675 327.102 247.42C327.346 247.166 327.483 246.821 327.483 246.461C327.483 246.101 327.346 245.756 327.102 245.502C326.858 245.247 326.528 245.105 326.183 245.105Z" fill="white"/>
<path d="M170.573 242.486C170.228 242.486 169.898 242.629 169.654 242.884C169.41 243.138 169.273 243.483 169.273 243.843C169.273 244.203 169.41 244.548 169.654 244.802C169.898 245.057 170.228 245.199 170.573 245.199C170.918 245.199 171.248 245.057 171.492 244.802C171.736 244.548 171.873 244.203 171.873 243.843C171.873 243.483 171.736 243.138 171.492 242.884C171.248 242.629 170.918 242.486 170.573 242.486Z" fill="white"/>
<path d="M112.151 246.461V247.329C112.151 247.689 112.288 248.034 112.532 248.289C112.776 248.543 113.106 248.686 113.451 248.686C113.796 248.686 114.126 248.543 114.37 248.289C114.614 248.034 114.751 247.689 114.751 247.329V246.461C114.751 246.101 114.614 245.756 114.37 245.502C114.126 245.247 113.796 245.105 113.451 245.105C113.106 245.105 112.776 245.247 112.532 245.502C112.288 245.756 112.151 246.101 112.151 246.461Z" fill="white"/>
<path d="M139.945 289.155C139.6 289.155 139.27 289.298 139.026 289.552C138.782 289.807 138.645 290.152 138.645 290.512C138.645 290.871 138.782 291.217 139.026 291.471C139.27 291.725 139.6 291.868 139.945 291.868C140.29 291.868 140.62 291.725 140.864 291.471C141.108 291.217 141.245 290.871 141.245 290.512C141.245 290.152 141.108 289.807 140.864 289.552C140.62 289.298 140.29 289.155 139.945 289.155Z" fill="white"/>
<path d="M182.988 212.274C182.643 212.274 182.313 212.417 182.069 212.671C181.825 212.925 181.688 213.27 181.688 213.63C181.688 213.99 181.825 214.335 182.069 214.59C182.313 214.844 182.643 214.987 182.988 214.987C183.333 214.987 183.663 214.844 183.907 214.59C184.151 214.335 184.288 213.99 184.288 213.63C184.288 213.27 184.151 212.925 183.907 212.671C183.663 212.417 183.333 212.274 182.988 212.274Z" fill="white"/>
<path d="M246.714 169.091C246.369 169.091 246.039 169.234 245.795 169.489C245.551 169.743 245.414 170.088 245.414 170.448C245.414 170.808 245.551 171.153 245.795 171.407C246.039 171.662 246.369 171.805 246.714 171.805C247.059 171.805 247.389 171.662 247.633 171.407C247.877 171.153 248.014 170.808 248.014 170.448C248.014 170.088 247.877 169.743 247.633 169.489C247.389 169.234 247.059 169.091 246.714 169.091Z" fill="white"/>
<path d="M285.623 338.388C285.278 338.388 284.948 338.531 284.704 338.785C284.46 339.04 284.323 339.385 284.323 339.744C284.323 340.104 284.46 340.449 284.704 340.704C284.948 340.958 285.278 341.101 285.623 341.101C285.968 341.101 286.298 340.958 286.542 340.704C286.786 340.449 286.923 340.104 286.923 339.744C286.923 339.385 286.786 339.04 286.542 338.785C286.298 338.531 285.968 338.388 285.623 338.388Z" fill="white"/>
<path d="M371.696 262.13C363.337 262.13 363.311 275.697 371.696 275.697C380.081 275.697 380.081 262.13 371.696 262.13Z" fill="#FFAE46"/>
<path d="M138.294 254.357C129.935 254.357 129.909 267.923 138.294 267.923C146.679 267.923 146.666 254.357 138.294 254.357Z" fill="#FFAE46"/>
<path d="M262.899 343.584C261.68 342.312 260.027 341.598 258.304 341.598C256.58 341.598 254.927 342.312 253.708 343.584C252.513 344.874 251.834 346.592 251.81 348.386V349.255C251.829 351.05 252.508 352.77 253.708 354.057C254.927 355.329 256.58 356.043 258.304 356.043C260.027 356.043 261.68 355.329 262.899 354.057C264.094 352.766 264.773 351.049 264.797 349.255V348.386C264.778 346.591 264.098 344.871 262.899 343.584Z" fill="#00AEE1"/>
<path d="M143.975 162.091C159.627 162.091 172.315 148.85 172.315 132.516C172.315 116.182 159.627 102.941 143.975 102.941C128.323 102.941 115.635 116.182 115.635 132.516C115.635 148.85 128.323 162.091 143.975 162.091Z" fill="#68E1FD"/>
<path d="M167.024 116.25C170.014 115.389 173.054 114.728 176.124 114.269C177.666 114.025 179.22 113.871 180.778 113.808C182.396 113.713 184.018 113.813 185.614 114.106C186.537 114.27 187.42 114.62 188.214 115.137C188.693 115.466 189.1 115.896 189.41 116.399C189.735 116.948 189.923 117.573 189.956 118.217C189.968 119.282 189.731 120.334 189.267 121.283C188.899 122.09 188.464 122.862 187.967 123.589C185.996 126.231 183.716 128.606 181.181 130.658C176.315 134.7 171.146 138.33 165.724 141.511C160.36 144.747 154.836 147.686 149.175 150.315C143.513 152.989 137.7 155.299 131.768 157.234C128.779 158.23 125.741 159.059 122.668 159.717C119.519 160.438 116.319 160.897 113.1 161.087C111.451 161.175 109.797 161.107 108.16 160.884C106.409 160.677 104.704 160.163 103.116 159.364C102.244 158.926 101.445 158.345 100.75 157.641C99.9702 156.837 99.4094 155.83 99.125 154.725C98.874 153.669 98.874 152.565 99.125 151.509C99.3389 150.591 99.6666 149.707 100.1 148.877C101.813 145.99 104.016 143.453 106.6 141.389C108.986 139.326 111.54 137.483 114.231 135.881C112.001 138.03 109.875 140.294 107.861 142.664C105.846 144.906 104.176 147.46 102.908 150.234C102.397 151.292 102.277 152.508 102.57 153.653C102.738 154.078 103.006 154.451 103.35 154.738C103.795 155.099 104.285 155.396 104.806 155.62C107.392 156.514 110.138 156.788 112.84 156.42C118.728 155.706 124.522 154.314 130.117 152.269C135.837 150.343 141.414 147.928 147.017 145.486C158.104 140.529 168.716 134.488 178.711 127.442C181.112 125.711 183.33 123.719 185.328 121.5C185.771 120.981 186.172 120.422 186.524 119.831C186.801 119.378 186.986 118.87 187.07 118.339C187.082 118.158 187.047 117.977 186.969 117.815C186.892 117.653 186.774 117.515 186.628 117.417C186.137 117.044 185.587 116.764 185.003 116.589C182.128 115.868 179.169 115.575 176.215 115.721C173.134 115.734 170.079 115.924 167.024 116.25Z" fill="#8CC63F"/>
</svg>
